<?xml version="1.0" encoding="utf-8"?>
<!-- Generator: Adobe Illustrator 26.1.0, SVG Export Plug-In . SVG Version: 6.00 Build 0)  -->
<svg version="1.1" id="Layer_1" xmlns="http://www.w3.org/2000/svg" xmlns:xlink="http://www.w3.org/1999/xlink" x="0px" y="0px"
	 viewBox="0 0 880.86 299.09" style="enable-background:new 0 0 880.86 299.09;" xml:space="preserve">
<g>
	<polygon points="110.5,167.5 240.79,167.5 110.5,297.79 	"/>
	<path d="M239.59,168L111,296.59V168H239.59 M242,167H110v132L242,167L242,167z"/>
</g>
<g>
	<g>
		<path d="M624.5,103.77v-30.9h14.58c4.1,0,7.28,1.03,9.45,3.05c2.16,2.02,3.25,4.87,3.25,8.48v7.69c0,3.7-1.09,6.61-3.25,8.63
			c-2.17,2.03-5.34,3.05-9.45,3.05H624.5z"/>
		<path d="M639.08,73.38c3.97,0,7.03,0.98,9.1,2.92c2.08,1.95,3.09,4.6,3.09,8.12v7.69c0,3.61-1.01,6.31-3.09,8.26
			c-2.07,1.94-5.13,2.92-9.1,2.92H625v-29.9H639.08 M639.08,72.38H624v31.9h15.08c4.25,0,7.51-1.06,9.79-3.19
			c2.27-2.13,3.41-5.12,3.41-8.99v-7.69c0-3.77-1.14-6.72-3.41-8.84C646.59,73.44,643.33,72.38,639.08,72.38L639.08,72.38z"/>
	</g>
	<g>
		<path d="M329.07,138.86c-6.38,0-11.12-1.98-14.1-5.89c-3.01-3.95-4.54-9.9-4.54-17.68V94.56c0-7.78,1.53-13.7,4.54-17.6
			c2.98-3.86,7.72-5.82,14.1-5.82c6.38,0,11.12,1.96,14.1,5.82c3.01,3.9,4.54,9.83,4.54,17.6v20.74c0,7.78-1.53,13.72-4.54,17.68
			C340.19,136.88,335.45,138.86,329.07,138.86z"/>
		<path d="M329.07,71.63c6.21,0,10.83,1.89,13.71,5.63c2.94,3.81,4.43,9.63,4.43,17.3v20.74c0,7.66-1.49,13.51-4.44,17.37
			c-2.88,3.78-7.49,5.7-13.7,5.7c-6.21,0-10.83-1.92-13.7-5.7c-2.94-3.86-4.44-9.71-4.44-17.37V94.56c0-7.66,1.49-13.48,4.43-17.3
			C318.24,73.53,322.85,71.63,329.07,71.63 M329.07,70.63c-6.57,0-11.41,2.01-14.5,6.02c-3.09,4.01-4.64,9.98-4.64,17.91v20.74
			c0,7.93,1.55,13.92,4.64,17.98c3.09,4.06,7.93,6.09,14.5,6.09c6.57,0,11.41-2.03,14.5-6.09c3.09-4.06,4.64-10.05,4.64-17.98V94.56
			c0-7.92-1.55-13.9-4.64-17.91C340.47,72.64,335.64,70.63,329.07,70.63L329.07,70.63z"/>
	</g>
	<g>
		<polygon points="534.2,118.56 538.49,105.01 545.54,81.67 552.32,104.99 556.61,118.56 		"/>
		<path d="M545.53,83.43l6.32,21.72l4.08,12.91h-21.05l4.09-12.92L545.53,83.43 M545.55,79.92l-7.54,24.94l-4.49,14.21h23.78
			l-4.49-14.21L545.55,79.92L545.55,79.92z"/>
	</g>
	<g>
		<path d="M149.62,95.8V72.15h12.12c3.72,0,6.56,0.84,8.44,2.49c1.86,1.63,2.8,3.95,2.8,6.87v4.79c0,2.93-0.94,5.27-2.81,6.95
			c-1.88,1.69-4.72,2.55-8.44,2.55H149.62z"/>
		<path d="M161.74,72.65c3.6,0,6.33,0.79,8.11,2.36c1.77,1.56,2.63,3.68,2.63,6.5v4.79c0,2.82-0.86,4.97-2.64,6.58
			c-1.78,1.61-4.51,2.42-8.1,2.42h-11.62V72.65H161.74 M161.74,71.65h-12.62V96.3h12.62c3.87,0,6.79-0.89,8.77-2.68
			c1.98-1.79,2.97-4.23,2.97-7.32v-4.79c0-3.09-0.99-5.51-2.97-7.25C168.53,72.52,165.61,71.65,161.74,71.65L161.74,71.65z"/>
	</g>
	<g>
		<path d="M149.62,137.85v-25.1h15.74c3.91,0,6.92,0.91,8.95,2.7c2.01,1.78,3.02,4.26,3.02,7.38v4.78c0,3.12-1.02,5.63-3.03,7.46
			c-2.02,1.84-5.03,2.77-8.94,2.77H149.62z"/>
		<path d="M165.37,113.25c3.79,0,6.69,0.87,8.62,2.58c1.92,1.7,2.85,4,2.85,7.01v4.78c0,3.02-0.94,5.34-2.86,7.09
			c-1.93,1.75-4.82,2.64-8.61,2.64h-15.24v-24.1H165.37 M165.37,112.25h-16.24v26.1h16.24c4.06,0,7.15-0.96,9.28-2.9
			c2.13-1.93,3.19-4.54,3.19-7.83v-4.78c0-3.29-1.06-5.87-3.19-7.76C172.52,113.19,169.43,112.25,165.37,112.25L165.37,112.25z"/>
	</g>
	<g>
		<path d="M711.21,103.77v-30.9h14.58c4.1,0,7.28,1.03,9.45,3.05c2.16,2.02,3.25,4.87,3.25,8.48v7.69c0,3.7-1.09,6.61-3.25,8.63
			c-2.17,2.03-5.34,3.05-9.45,3.05H711.21z"/>
		<path d="M725.79,73.38c3.97,0,7.03,0.98,9.1,2.92c2.08,1.95,3.09,4.6,3.09,8.12v7.69c0,3.61-1.01,6.31-3.09,8.26
			c-2.07,1.94-5.13,2.92-9.1,2.92h-14.08v-29.9H725.79 M725.79,72.38h-15.08v31.9h15.08c4.25,0,7.51-1.06,9.79-3.19
			c2.27-2.13,3.41-5.12,3.41-8.99v-7.69c0-3.77-1.14-6.72-3.41-8.84C733.3,73.44,730.04,72.38,725.79,72.38L725.79,72.38z"/>
	</g>
	<g>
		<path d="M77.49,209.5c-42.45,0-76.99-34.54-76.99-76.99V77.49C0.5,35.04,35.04,0.5,77.49,0.5h726.03
			c42.45,0,76.99,34.54,76.99,76.99v55.03c0,42.45-34.54,76.99-76.99,76.99H77.49z M427.09,53.75c-8.75,0-16.13,1.73-21.93,5.14
			c-5.81,3.42-10.24,8.25-13.17,14.35c-2.92,6.08-4.4,13.25-4.4,21.31v20.74c0,7.87,1.48,14.97,4.4,21.09
			c2.93,6.15,7.31,11.05,13.02,14.57c5.71,3.51,12.89,5.29,21.36,5.29c7.46,0,14.08-0.96,19.66-2.85c5.56-1.89,9.62-3.58,12.06-5.05
			l0.24-0.15V99.57h-32.75v16.23h15.95v20.72c-2.28,0.62-4.67,1.12-7.11,1.48c-2.57,0.38-4.98,0.57-7.18,0.57
			c-7.15,0-12.46-2.18-15.77-6.48c-3.35-4.33-5.04-9.99-5.04-16.8V94.56c0-7.2,1.67-12.97,4.97-17.16
			c3.27-4.15,8.65-6.26,15.99-6.26c3.32,0,6.72,0.41,10.11,1.22c3.38,0.81,7.49,2.15,12.19,3.97l0.48,0.19l5.69-16.15l-0.42-0.19
			c-5.43-2.42-10.49-4.11-15.04-5.04C435.82,54.22,431.35,53.75,427.09,53.75z M329.07,53.75c-12.27,0-21.69,3.67-28,10.9
			c-6.29,7.22-9.48,17.28-9.48,29.91v20.74c0,12.63,3.19,22.72,9.47,29.98c6.31,7.28,15.73,10.98,28,10.98
			c12.18,0,21.57-3.69,27.93-10.97c6.34-7.26,9.55-17.35,9.55-29.98V94.56c0-12.63-3.21-22.69-9.55-29.91
			C350.64,57.42,341.24,53.75,329.07,53.75z M692.81,154.8h18.4v-33.35h14.58c10.44,0,18.39-2.71,23.63-8.05
			c5.24-5.34,7.9-12.51,7.9-21.3v-7.69c0-8.79-2.66-15.94-7.9-21.23c-5.25-5.29-13.2-7.98-23.63-7.98h-32.98V154.8z M606.1,154.8
			h18.4v-33.35h14.58c10.44,0,18.39-2.71,23.63-8.05c5.24-5.34,7.9-12.51,7.9-21.3v-7.69c0-8.79-2.66-15.94-7.9-21.23
			c-5.25-5.29-13.2-7.98-23.63-7.98H606.1V154.8z M568.1,154.8h19.19l-33.4-99.6H537.8l-33.25,99.6h18.32l6.09-19.29h33.05
			L568.1,154.8z M219.53,154.8h57.84v-17.67h-39.44V55.2h-18.4V154.8z M131.23,154.8h34.14c7.49,0,13.56-1.14,18.06-3.39
			c4.53-2.26,7.82-5.49,9.8-9.58c1.96-4.06,2.95-8.84,2.95-14.21v-4.06c0-4.91-1.25-9.2-3.71-12.75c-2.3-3.32-5.64-5.93-9.92-7.79
			c6.16-4.12,9.29-9.98,9.29-17.45v-4.06c0-5.27-0.97-9.93-2.88-13.85c-1.93-3.95-5.12-7.05-9.51-9.22
			c-4.36-2.15-10.31-3.24-17.69-3.24h-30.52V154.8z"/>
		<path d="M803.51,1C845.69,1,880,35.31,880,77.49v55.03c0,42.18-34.31,76.49-76.49,76.49H77.49C35.31,209,1,174.69,1,132.51V77.49
			C1,35.31,35.31,1,77.49,1H803.51 M426.36,156.75c7.51,0,14.18-0.97,19.82-2.88c5.59-1.9,9.68-3.61,12.16-5.09l0.49-0.29v-0.57
			v-47.85v-1h-1h-31.75h-1v1v15.23v1h1h14.95v19.84c-2.15,0.57-4.4,1.03-6.69,1.37c-2.54,0.38-4.93,0.57-7.1,0.57
			c-6.99,0-12.16-2.11-15.38-6.28c-3.28-4.24-4.94-9.79-4.94-16.5V94.56c0-7.08,1.64-12.75,4.86-16.85
			c3.17-4.03,8.42-6.07,15.6-6.07c3.28,0,6.64,0.41,9.99,1.2c3.36,0.81,7.44,2.13,12.12,3.95l0.96,0.37l0.34-0.97l5.37-15.22
			l0.31-0.87l-0.84-0.38c-5.46-2.43-10.56-4.14-15.15-5.07c-4.59-0.93-9.1-1.4-13.39-1.4c-8.84,0-16.3,1.75-22.18,5.21
			c-5.9,3.47-10.4,8.37-13.37,14.57c-2.95,6.15-4.45,13.39-4.45,21.53v20.74c0,7.94,1.5,15.11,4.45,21.31
			c2.97,6.24,7.41,11.21,13.21,14.78C410.53,154.94,417.8,156.75,426.36,156.75 M329.07,156.75c12.33,0,21.85-3.75,28.3-11.15
			c6.42-7.36,9.67-17.55,9.67-30.31V94.56c0-12.75-3.25-22.93-9.67-30.24c-6.45-7.35-15.98-11.07-28.3-11.07
			c-12.42,0-21.97,3.73-28.38,11.07c-6.37,7.31-9.6,17.48-9.6,30.24v20.74c0,12.76,3.23,22.95,9.6,30.31
			C307.09,153,316.64,156.75,329.07,156.75 M692.31,155.3h1h17.4h1v-1v-32.35h14.08c10.57,0,18.64-2.76,23.99-8.2
			c5.34-5.44,8.04-12.72,8.04-21.65v-7.69c0-8.93-2.71-16.19-8.05-21.58c-5.34-5.39-13.41-8.13-23.98-8.13h-32.48h-1v1v98.6V155.3
			 M605.6,155.3h1H624h1v-1v-32.35h14.08c10.57,0,18.64-2.76,23.99-8.2c5.34-5.44,8.04-12.72,8.04-21.65v-7.69
			c0-8.93-2.71-16.19-8.05-21.58c-5.34-5.39-13.41-8.13-23.98-8.13H606.6h-1v1v98.6V155.3 M503.85,155.3h1.39h17.25h0.73l0.22-0.7
			l5.87-18.59h32.32l5.87,18.59l0.22,0.7h0.73h18.12h1.39l-0.44-1.32l-33.06-98.6l-0.23-0.68h-0.72h-15.37h-0.72l-0.23,0.68
			l-32.91,98.6L503.85,155.3 M219.03,155.3h1h56.84h1v-1v-16.67v-1h-1h-38.44V55.7v-1h-1h-17.4h-1v1v98.6V155.3 M130.73,155.3h1
			h33.64c7.57,0,13.72-1.16,18.28-3.44c4.63-2.31,8-5.61,10.02-9.81c1.99-4.13,3-8.98,3-14.43v-4.06c0-5.02-1.28-9.4-3.8-13.04
			c-2.21-3.18-5.34-5.73-9.32-7.59c5.82-4.18,8.77-10.01,8.77-17.36v-4.06c0-5.35-0.99-10.08-2.93-14.07
			c-1.98-4.05-5.25-7.23-9.74-9.45c-4.43-2.19-10.45-3.29-17.92-3.29h-30.02h-1v1v98.6V155.3 M803.51,0H77.49
			C34.69,0,0,34.69,0,77.49v55.03C0,175.31,34.69,210,77.49,210h726.03c42.79,0,77.49-34.69,77.49-77.49V77.49
			C881,34.69,846.31,0,803.51,0L803.51,0z M426.36,155.75c-8.41,0-15.44-1.74-21.1-5.22c-5.65-3.48-9.93-8.26-12.83-14.35
			c-2.9-6.09-4.35-13.05-4.35-20.88V94.56c0-8.02,1.45-15.05,4.35-21.1c2.9-6.04,7.22-10.75,12.98-14.14
			c5.75-3.38,12.98-5.07,21.68-5.07c4.25,0,8.65,0.46,13.2,1.38c4.54,0.92,9.52,2.59,14.94,5l-5.37,15.22
			c-4.74-1.83-8.82-3.16-12.25-3.99c-3.43-0.82-6.84-1.23-10.22-1.23c-7.54,0-13,2.15-16.39,6.45c-3.38,4.3-5.08,10.13-5.08,17.47
			v20.74c0,6.96,1.71,12.66,5.15,17.11c3.43,4.45,8.82,6.67,16.17,6.67c2.22,0,4.64-0.19,7.25-0.58c2.61-0.38,5.12-0.92,7.54-1.59
			v-21.6h-15.95v-15.23h31.75v47.85c-2.42,1.45-6.4,3.12-11.96,5C440.31,154.81,433.81,155.75,426.36,155.75L426.36,155.75z
			 M329.07,155.75c-12.18,0-21.39-3.6-27.62-10.8c-6.23-7.2-9.35-17.08-9.35-29.65V94.56c0-12.57,3.12-22.42,9.35-29.58
			c6.24-7.15,15.44-10.73,27.62-10.73c12.08,0,21.27,3.58,27.55,10.73c6.28,7.16,9.42,17.01,9.42,29.58v20.74
			c0,12.57-3.14,22.45-9.42,29.65C350.33,152.15,341.15,155.75,329.07,155.75L329.07,155.75z M693.31,154.3V55.7h32.48
			c10.34,0,18.1,2.61,23.27,7.83c5.17,5.22,7.76,12.18,7.76,20.88v7.69c0,8.7-2.59,15.68-7.76,20.95c-5.17,5.27-12.93,7.9-23.27,7.9
			h-15.08v33.35H693.31L693.31,154.3z M606.6,154.3V55.7h32.48c10.34,0,18.1,2.61,23.27,7.83c5.17,5.22,7.76,12.18,7.76,20.88v7.69
			c0,8.7-2.59,15.68-7.76,20.95c-5.17,5.27-12.93,7.9-23.27,7.9H624v33.35H606.6L606.6,154.3z M505.24,154.3l32.92-98.6h15.37
			l33.06,98.6h-18.12l-6.09-19.29h-33.78l-6.09,19.29H505.24L505.24,154.3z M220.03,154.3V55.7h17.4v81.93h39.44v16.67H220.03
			L220.03,154.3z M131.73,154.3V55.7h30.02c7.35,0,13.17,1.07,17.47,3.19c4.3,2.13,7.4,5.12,9.28,8.99
			c1.89,3.87,2.83,8.41,2.83,13.63v4.06c0,7.64-3.29,13.49-9.86,17.54c4.64,1.84,8.17,4.5,10.59,7.98
			c2.41,3.48,3.62,7.64,3.62,12.47v4.06c0,5.32-0.97,9.98-2.9,13.99c-1.93,4.01-5.12,7.13-9.57,9.35
			c-4.45,2.22-10.39,3.33-17.83,3.33H131.73L131.73,154.3z"/>
	</g>
</g>
</svg>
